<svg width="86" height="86" viewBox="0 0 86 86" fill="none" xmlns="http://www.w3.org/2000/svg">
<rect width="86" height="86" rx="19" fill="url(#paint0_linear_316_88)"/>
<path d="M35.0575 39.9423L43.3497 31.6501L51.6462 39.9466L56.4712 35.1215L43.3497 22L30.2324 35.1173L35.0575 39.9423ZM22 43.3497L26.825 38.5247L31.6501 43.3497L26.825 48.1747L22 43.3497ZM35.0575 46.7571L43.3497 55.0493L51.6462 46.7528L56.4712 51.5757L43.3497 64.6994L30.2324 51.5821L30.226 51.5757L35.0575 46.7571ZM55.0493 43.3497L59.8744 38.5247L64.6994 43.3497L59.8744 48.1747L55.0493 43.3497ZM48.2431 43.3454H48.2473V43.3497L43.3497 48.2473L38.4585 43.3582L38.4499 43.3497L38.4585 43.3433L39.3146 42.485L39.7309 42.0687L43.3497 38.4521L48.2452 43.3476L48.2431 43.3454Z" fill="white"/>
<defs>
<linearGradient id="paint0_linear_316_88" x1="79.3846" y1="0" x2="0" y2="79.3846" gradientUnits="userSpaceOnUse">
<stop stop-color="#FFD52D"/>
<stop offset="1" stop-color="#FFA510"/>
</linearGradient>
</defs>
</svg>
