<svg width="95" height="61" viewBox="0 0 95 61" fill="none" xmlns="http://www.w3.org/2000/svg">
<path d="M28.9578 50.0353C41.6372 55.3889 60.209 52.2649 70.4392 43.0578C80.6693 33.8506 78.6838 22.0469 66.0044 16.6934C53.3251 11.3399 34.7532 14.4638 24.5231 23.671C14.2929 32.8781 16.2784 44.6818 28.9578 50.0353Z" fill="#CE7202"/>
<g clip-path="url(#clip0_403_191)">
<g clip-path="url(#clip1_403_191)">
<path d="M28.8402 46.8007C41.5195 52.1542 60.0914 49.0303 70.3215 39.8232C80.5516 30.616 78.5661 18.8123 65.8868 13.4588C53.2074 8.10526 34.6355 11.2292 24.4054 20.4364C14.1753 29.6435 16.1608 41.4472 28.8402 46.8007Z" fill="#F7931A"/>
<path d="M59.9708 32.423C62.8479 30.4293 61.8611 28.2875 59.6008 26.1821L63.9046 23.6519L61.923 22.157L57.7318 24.6199C57.2124 24.2261 56.6664 23.8333 56.1219 23.4412L60.3411 20.9625L58.3606 19.4665L54.058 21.9957C53.618 21.6783 53.1844 21.3666 52.7749 21.0559L52.7881 21.0478L50.0562 18.9835L47.2591 20.6282C47.2591 20.6282 48.7596 21.7118 48.7001 21.7142C49.5019 22.3207 49.1467 22.8794 48.6905 23.2501L43.7888 26.1325C43.8438 26.1741 43.9119 26.2304 43.9811 26.3009L43.7706 26.1432L36.9025 30.1806C36.5336 30.3494 35.853 30.5503 35.2899 30.1274C35.2868 30.1643 33.8501 29.0403 33.8501 29.0403L30.329 30.5815L32.908 32.5291C33.3863 32.8918 33.8472 33.2548 34.3062 33.6062L29.9553 36.1655L31.9356 37.6598L36.2393 35.1297C36.7696 35.5479 37.2901 35.9484 37.8033 36.3365L33.5163 38.8553L35.4979 40.3503L39.8419 37.7972C43.4259 40.1647 46.8661 41.2728 51.2913 39.0602C54.8547 37.2798 55.157 35.5108 53.8658 33.7303C55.7882 34.144 57.868 33.8848 59.9708 32.423V32.423ZM47.8917 35.8002C44.6413 37.7143 40.7983 34.3145 39.4535 33.3013L45.2217 29.9122C46.5642 30.9276 51.2847 33.807 47.8917 35.8002ZM55.1066 30.3218C52.1468 32.0616 48.9803 29.2046 47.8626 28.3607L53.0907 25.2871C54.2084 26.131 58.1938 28.5071 55.1066 30.3218Z" fill="white"/>
</g>
</g>
<defs>
<clipPath id="clip0_403_191">
<rect width="56.9037" height="56.9037" fill="white" transform="matrix(0.92125 0.388972 -0.743294 0.668965 42.2964 0)"/>
</clipPath>
<clipPath id="clip1_403_191">
<rect width="49.8411" height="49.8411" fill="white" transform="matrix(0.92125 0.388972 -0.743294 0.668965 42.9292 3.7666)"/>
</clipPath>
</defs>
</svg>
