<svg width="86" height="86" viewBox="0 0 86 86" fill="none" xmlns="http://www.w3.org/2000/svg">
<rect width="86" height="86" rx="19" fill="url(#paint0_linear_316_89)"/>
<path d="M38.6651 59.598C45.4055 59.598 50.8679 54.1534 50.8679 47.4348C50.8679 40.7162 45.4055 35.2715 38.6651 35.2715C31.9247 35.2715 26.4624 40.7162 26.4624 47.4348C26.4624 54.1534 31.9247 59.598 38.6651 59.598ZM38.6651 64.0226C29.4739 64.0226 22.0234 56.5963 22.0234 47.4348C22.0234 38.2733 29.4739 30.8469 38.6651 30.8469C47.8564 30.8469 55.3068 38.2733 55.3068 47.4348C55.3068 56.5963 47.8564 64.0226 38.6651 64.0226Z" fill="#FBCC5C"/>
<path d="M47.5402 50.7511C54.2806 50.7511 59.7429 45.3064 59.7429 38.5878C59.7429 31.8692 54.2806 26.4246 47.5402 26.4246C40.7997 26.4246 35.3349 31.8692 35.3349 38.5878C35.3349 45.3064 40.7997 50.7511 47.5402 50.7511ZM47.5402 55.1757C38.3489 55.1757 30.8984 47.7494 30.8984 38.5878C30.8984 29.4263 38.3489 22 47.5402 22C56.7314 22 64.1819 29.4263 64.1819 38.5878C64.1819 47.7494 56.7314 55.1757 47.5402 55.1757Z" fill="#35D07F"/>
<defs>
<linearGradient id="paint0_linear_316_89" x1="79.3846" y1="0" x2="0" y2="79.3846" gradientUnits="userSpaceOnUse">
<stop stop-color="#EEEEEE"/>
<stop offset="1" stop-color="#E9E9E9"/>
</linearGradient>
</defs>
</svg>
