<svg width="93" height="59" viewBox="0 0 93 59" fill="none" xmlns="http://www.w3.org/2000/svg">
<path d="M26.3213 50.8178C40.8582 55.0173 61.5028 49.9387 72.4323 39.4742C83.3618 29.0098 80.4374 17.1224 65.9005 12.9228C51.3636 8.72325 30.719 13.8019 19.7895 24.2663C8.86001 34.7307 11.7844 46.6182 26.3213 50.8178Z" fill="#4D67C8"/>
<path d="M13.2197 38.5572V31.839L78.9524 19.9834V25.7136L36.4699 44.485L13.2197 38.5572Z" fill="#4D67C8"/>
<g clip-path="url(#clip0_414_138)">
<path d="M26.324 45.4989C40.8609 49.6985 61.5055 44.6198 72.435 34.1554C83.3645 23.691 80.4401 11.8035 65.9032 7.60396C51.3663 3.40441 30.7217 8.48308 19.7922 18.9475C8.86269 29.4119 11.7871 41.2994 26.324 45.4989Z" fill="#627EEA"/>
<g clip-path="url(#clip1_414_138)">
<g clip-path="url(#clip2_414_138)">
<path d="M26.2457 43.7619C39.9073 48.0122 59.7526 43.8679 70.5714 34.5054C81.3902 25.143 79.0858 14.1077 65.4242 9.85741C51.7626 5.60714 31.9173 9.7514 21.0985 19.1139C10.2796 28.4763 12.5841 39.5116 26.2457 43.7619Z" fill="#627EEA"/>
<path d="M61.2935 14.3335L50.4337 23.7314L57.9227 30.8867L61.2935 14.3335Z" fill="white" fill-opacity="0.602"/>
<path d="M61.2938 14.334L34.7404 23.6748L50.434 23.7319L61.2938 14.334Z" fill="white"/>
<path d="M39.294 33.371L31.915 39.7567L56.2206 32.3684L39.294 33.371Z" fill="white" fill-opacity="0.602"/>
<path d="M31.9153 39.7572L39.2956 33.3704L33.0305 25.1541L31.9153 39.7572Z" fill="white"/>
<path d="M41.0024 31.893L57.9224 30.8869L50.4309 23.7336L41.0024 31.893Z" fill="white" fill-opacity="0.2"/>
<path d="M34.7405 23.6747L41.0032 31.8932L50.4317 23.7339L34.7405 23.6747Z" fill="white" fill-opacity="0.602"/>
</g>
</g>
</g>
<defs>
<clipPath id="clip0_414_138">
<rect width="54.7955" height="54.7955" fill="white" transform="matrix(0.960714 0.27754 -0.722308 0.691572 39.5818 0)"/>
</clipPath>
<clipPath id="clip1_414_138">
<rect width="59.0425" height="59.0425" fill="white" transform="matrix(0.954857 0.297067 -0.756169 0.654377 39.9519 -1.35986)"/>
</clipPath>
<clipPath id="clip2_414_138">
<rect width="51.8119" height="51.8119" fill="white" transform="matrix(0.954857 0.297067 -0.756169 0.654377 40.6895 2.16211)"/>
</clipPath>
</defs>
</svg>
