<svg id="Capa_1" data-name="Capa 1" xmlns="http://www.w3.org/2000/svg" xmlns:xlink="http://www.w3.org/1999/xlink" viewBox="0 0 1643.97 749.79"><defs><style>.cls-1{fill:none;}.cls-2{fill:url(#Degradado_sin_nombre);}.cls-3{fill:url(#Degradado_sin_nombre_2);}.cls-4{fill:url(#Degradado_sin_nombre_3);}.cls-5{clip-path:url(#clip-path);}.cls-6{fill:url(#Degradado_sin_nombre_4);}.cls-7{fill:url(#Degradado_sin_nombre_5);}.cls-8{fill:url(#Degradado_sin_nombre_6);}</style><linearGradient id="Degradado_sin_nombre" x1="1111.92" y1="711.47" x2="1110.69" y2="110.39" gradientTransform="matrix(1, 0, 0, -1, 0, 749.89)" gradientUnits="userSpaceOnUse"><stop offset="0" stop-color="#f3d600"/><stop offset="0.27" stop-color="#efcb04"/><stop offset="0.72" stop-color="#e5af0f"/><stop offset="1" stop-color="#dd9b17"/></linearGradient><linearGradient id="Degradado_sin_nombre_2" x1="1353.37" y1="676.14" x2="1355.83" y2="507.39" xlink:href="#Degradado_sin_nombre"/><linearGradient id="Degradado_sin_nombre_3" x1="509.4" y1="174.15" x2="505.4" y2="591.04" gradientTransform="matrix(1, 0, 0, -1, 0, 749.89)" gradientUnits="userSpaceOnUse"><stop offset="0" stop-color="#3f71fb"/><stop offset="0.21" stop-color="#3c6af0"/><stop offset="0.57" stop-color="#3458d4"/><stop offset="1" stop-color="#293caa"/></linearGradient><clipPath id="clip-path"><path class="cls-1" d="M920,560.32c18.23,27.55,83.28,140.8-58.32,118.57C769.79,664.48,601,563.5,508.06,563.67c-91.84.16-258.16,100.46-348.8,115.22-32.07,5.22-143.34.54-59.35-115.61L423.2,116.16s84-116.16,169-.76c0,0,251.51,329.7,327.75,444.92Z"/></clipPath><linearGradient id="Degradado_sin_nombre_4" x1="511.74" y1="174.17" x2="507.74" y2="591.06" xlink:href="#Degradado_sin_nombre_3"/><linearGradient id="Degradado_sin_nombre_5" x1="509.34" y1="172.58" x2="505.33" y2="589.47" xlink:href="#Degradado_sin_nombre_3"/><linearGradient id="Degradado_sin_nombre_6" x1="734.26" y1="121.16" x2="719.85" y2="224.09" xlink:href="#Degradado_sin_nombre_3"/></defs><g id="Capa_2" data-name="Capa 2"><g id="Capa_1-2" data-name="Capa 1-2"><path class="cls-2" d="M1134,183.48v-.1h-1.87C1040.29,183.24,874,82.94,783.32,68.18,751.25,63,640,67.64,724,183.79l323.3,447.12s84,116.16,169,.76c0,0,224.86-294.76,313.8-424.27C1440.59,308.55,1134,183.48,1134,183.48Z"/><path class="cls-3" d="M1485.7,68.18c-91.24,14.32-258.36,114-351.71,115.2v.1s306.56,125.07,396,23.92c5.12-7.46,9.8-14.37,14-20.65C1562.25,159.2,1627.3,46,1485.7,68.18Z"/><path class="cls-4" d="M920,560.32c18.23,27.55,83.28,140.8-58.32,118.57C769.79,664.48,601,563.5,508.06,563.67c-91.84.16-258.16,100.46-348.8,115.22-32.07,5.22-143.34.54-59.35-115.61L423.2,116.16s84-116.16,169-.76c0,0,251.51,329.7,327.75,444.92Z"/><g class="cls-5"><rect class="cls-6" x="15.92" width="987.32" height="701.12"/></g><path class="cls-7" d="M919.94,561.89h0c18.23,27.55,83.28,140.8-58.32,118.57C769.77,666.05,601,565.08,508,565.24c-91.83.16-258.16,100.46-348.8,115.22-32.07,5.22-143.34.54-59.35-115.61l323.3-447.12s84-116.16,169-.76c0,0,251.52,329.7,327.75,444.92"/><path class="cls-8" d="M920,561.87c-4.16-6.27-8.83-13.18-14-20.64-89.47-101.16-396,23.92-396,23.92v.1c93.34,1.16,260.47,100.88,351.7,115.2C1003.26,702.67,938.2,589.42,920,561.87Z"/><rect class="cls-1" width="1643.97" height="749.79"/></g></g></svg>