<svg width="214" height="12" viewBox="0 0 214 12" fill="none" xmlns="http://www.w3.org/2000/svg">
<path d="M0 1C7.12 1 7.12001 11 14.24 11C21.36 11 21.35 1 28.47 1C35.59 1 35.59 11 42.71 11C49.83 11 49.82 1 56.94 1C64.06 1 64.06 11 71.18 11C78.3 11 78.29 1 85.41 1C92.53 1 92.53 11 99.65 11C106.77 11 106.77 1 113.89 1C121.01 1 121 11 128.12 11C135.24 11 135.24 1 142.36 1C149.48 1 149.48 11 156.6 11C163.72 11 163.72 1 170.84 1C177.96 1 177.95 11 185.07 11C192.19 11 192.19 1 199.32 1C206.45 1 206.44 11 213.56 11" stroke="#FCBE0A" stroke-miterlimit="10"/>
</svg>
