<svg width="86" height="86" viewBox="0 0 86 86" fill="none" xmlns="http://www.w3.org/2000/svg">
<rect width="86" height="86" rx="19" fill="#EC0928"/>
<path d="M62.4423 36.9905C60.4202 35.1242 57.623 32.2742 55.3447 30.253L55.2099 30.1587C54.9856 29.9786 54.7327 29.8374 54.4617 29.7409V29.7409C48.9683 28.7168 23.402 23.9399 22.9032 24.0006C22.7634 24.0201 22.6299 24.0708 22.5123 24.1488L22.3842 24.2499C22.2265 24.4099 22.1067 24.6033 22.0337 24.8158L22 24.9034V25.3818V25.4559C24.8781 33.4668 36.2424 59.7094 38.4803 65.8675C38.6151 66.2852 38.8712 67.0803 39.3498 67.1207H39.4576C39.7137 67.1207 40.8057 65.6789 40.8057 65.6789C40.8057 65.6789 60.3259 42.0167 62.3008 39.4969C62.5564 39.1865 62.7821 38.8526 62.9748 38.4997C63.024 38.2236 63.0008 37.9395 62.9075 37.675C62.8142 37.4105 62.6539 37.1747 62.4423 36.9905V36.9905ZM45.8138 39.7462L54.1449 32.8402L59.0317 37.3409L45.8138 39.7462ZM42.5784 39.2947L28.2349 27.5445L51.442 31.8228L42.5784 39.2947ZM43.8726 42.3738L58.5531 40.0089L41.7696 60.2215L43.8726 42.3738ZM26.2869 28.7168L41.3786 41.5181L39.1947 60.2349L26.2869 28.7168Z" fill="#F9F9F9"/>
</svg>
